<svg width="120" height="25" viewBox="0 0 120 25" fill="none" xmlns="http://www.w3.org/2000/svg">
    <path d="M31.66 22.1099V7.28038H35.6794V8.80352C36.6525 7.61885 37.809 7.02652 39.1488 7.02652C40.5591 7.02652 41.7579 7.57654 42.7451 8.67659C43.7323 9.76254 44.226 11.2011 44.226 12.9922C44.226 14.7974 43.7323 16.25 42.7451 17.3501C41.772 18.436 40.5803 18.979 39.17 18.979C37.7878 18.979 36.6243 18.429 35.6794 17.3289V22.1099H31.66ZM37.9218 15.6154C38.5847 15.6154 39.1418 15.3686 39.5931 14.8749C40.0444 14.3813 40.27 13.7467 40.27 12.971C40.27 12.2235 40.0444 11.6101 39.5931 11.1305C39.1418 10.6369 38.5847 10.3901 37.9218 10.3901C37.2731 10.3901 36.7231 10.6369 36.2718 11.1305C35.8204 11.6242 35.5948 12.2518 35.5948 13.0133C35.5948 13.7608 35.8204 14.3813 36.2718 14.8749C36.7231 15.3686 37.2731 15.6154 37.9218 15.6154Z" fill="#15121A"/>
    <path d="M51.3717 19.0001C49.5664 19.0001 48.0645 18.4219 46.8657 17.2654C45.6669 16.0949 45.0675 14.6775 45.0675 13.0133C45.0675 11.3633 45.6669 9.95293 46.8657 8.78237C48.0786 7.6118 49.5946 7.02652 51.414 7.02652C53.2192 7.02652 54.7212 7.6118 55.9199 8.78237C57.1187 9.93883 57.7181 11.3491 57.7181 13.0133C57.7181 14.6634 57.1117 16.0737 55.8988 17.2443C54.7 18.4149 53.191 19.0001 51.3717 19.0001ZM51.414 15.5942C52.1332 15.5942 52.7115 15.3474 53.1487 14.8538C53.5859 14.3602 53.8045 13.7467 53.8045 13.0133C53.8045 12.3082 53.5718 11.7017 53.1063 11.194C52.6409 10.6863 52.0627 10.4324 51.3717 10.4324C50.6524 10.4324 50.0742 10.6792 49.637 11.1729C49.1998 11.6665 48.9812 12.28 48.9812 13.0133C48.9812 13.7185 49.2139 14.3249 49.6793 14.8326C50.1447 15.3404 50.7229 15.5942 51.414 15.5942Z" fill="#15121A"/>
    <path d="M59.0773 18.7251V3.28212H63.0967V18.7251H59.0773Z" fill="#15121A"/>
    <path d="M68.2967 22.1734C67.0274 22.1734 65.8004 21.8419 64.6157 21.1791L65.8638 18.3655C66.5408 18.7745 67.1261 18.979 67.6197 18.979C68.0146 18.979 68.3249 18.8238 68.5505 18.5136L64.0657 7.28038H68.2755L70.5602 14.1768L72.718 7.28038H76.8432L72.6545 18.4501C72.1468 19.804 71.5756 20.763 70.941 21.3272C70.3064 21.8913 69.4249 22.1734 68.2967 22.1734Z" fill="#15121A"/>
    <path d="M78.4505 18.7251V10.4959H77.1177V7.34384H78.4505V7.08998C78.4505 5.76428 78.7748 4.77706 79.4236 4.12831C80.0864 3.46546 81.0807 3.13403 82.4064 3.13403C83.45 3.13403 84.3244 3.23981 85.0296 3.45135V6.2861C84.536 6.13096 84.0353 6.0534 83.5276 6.0534C82.766 6.0534 82.3853 6.41303 82.3853 7.13229V7.4073H85.0084V10.4959H82.4487V18.7251H78.4505Z" fill="#15121A"/>
    <path d="M88.83 18.979C87.7018 18.979 86.778 18.6687 86.0588 18.0482C85.3395 17.4135 84.9799 16.5321 84.9799 15.4038C84.9799 14.2474 85.3818 13.3589 86.1857 12.7383C86.9896 12.1178 88.0826 11.8075 89.4647 11.8075C90.466 11.8075 91.3827 11.9556 92.2148 12.2518V12.0614C92.2148 10.8203 91.4532 10.1997 89.9301 10.1997C88.9006 10.1997 87.8499 10.4113 86.778 10.8344L85.953 7.99964C87.3915 7.4073 88.9358 7.11114 90.5859 7.11114C92.5603 7.11114 94.013 7.57654 94.9438 8.50735C95.7618 9.31124 96.1708 10.5241 96.1708 12.146V18.7251H92.1937V17.5405C91.3334 18.4995 90.2122 18.979 88.83 18.979ZM90.2686 16.4616C90.8609 16.4616 91.3404 16.2923 91.7071 15.9538C92.0738 15.6013 92.2571 15.1429 92.2571 14.5788V14.0499C91.7917 13.8525 91.2699 13.7537 90.6917 13.7537C90.1134 13.7537 89.6621 13.8877 89.3377 14.1557C89.0134 14.4095 88.8512 14.7621 88.8512 15.2134C88.8512 15.5942 88.9781 15.8974 89.232 16.1231C89.4999 16.3487 89.8455 16.4616 90.2686 16.4616Z" fill="#15121A"/>
    <path d="M97.7919 18.7251V7.28038H101.811V8.88814C102.77 7.64706 103.913 7.02652 105.238 7.02652C106.451 7.02652 107.403 7.4073 108.094 8.16888C108.785 8.91635 109.131 9.93883 109.131 11.2363V18.7251H105.111V12.5268C105.111 11.9203 104.963 11.4479 104.667 11.1094C104.385 10.7709 103.997 10.6017 103.504 10.6017C102.996 10.6017 102.587 10.7709 102.277 11.1094C101.966 11.4479 101.811 11.9203 101.811 12.5268V18.7251H97.7919Z" fill="#15121A"/>
    <path d="M115.325 18.979C113.28 18.979 111.475 18.4149 109.909 17.2866L111.411 14.8538C112.737 15.7282 114.048 16.1654 115.346 16.1654C116.023 16.1654 116.361 15.9468 116.361 15.5096C116.361 15.298 116.22 15.1288 115.938 15.0019C115.67 14.8749 115.198 14.7198 114.521 14.5365C113.181 14.1698 112.166 13.7326 111.475 13.2249C110.798 12.7031 110.459 11.9062 110.459 10.8344C110.459 9.64971 110.882 8.72595 111.728 8.0631C112.589 7.38615 113.696 7.04767 115.05 7.04767C116.813 7.04767 118.385 7.49192 119.767 8.38042L118.392 10.919C117.123 10.2138 115.995 9.86126 115.007 9.86126C114.387 9.86126 114.077 10.0587 114.077 10.4536C114.077 10.651 114.211 10.8203 114.479 10.9613C114.747 11.0882 115.233 11.2575 115.938 11.469C116.587 11.6524 117.123 11.8357 117.546 12.0191C117.969 12.1883 118.385 12.4139 118.794 12.696C119.203 12.9781 119.506 13.3236 119.704 13.7326C119.901 14.1275 120 14.5999 120 15.15C120 16.3769 119.577 17.3219 118.731 17.9847C117.885 18.6476 116.749 18.979 115.325 18.979Z" fill="#15121A"/>
    <path d="M24.4005 12.0243C24.2304 15.1365 18.8258 17.6364 12.1686 17.6364C9.93413 17.6364 7.84729 17.3493 6.04486 16.858V19.2987C7.84797 19.9954 9.93549 20.4009 12.1686 20.4009C18.9333 20.4009 24.4161 16.7451 24.4161 12.2359C24.4161 12.1645 24.4032 12.0951 24.4005 12.0243Z" fill="#F5B786"/>
    <path d="M18.2924 5.1712C16.492 4.47445 14.4024 4.07096 12.1686 4.07096C6.03263 4.07096 0.965557 7.08249 0.0748901 11.0071C0.965557 8.23784 6.03263 6.11222 12.1686 6.11222C14.4024 6.11222 16.492 6.39663 18.2924 6.88857V5.1712Z" fill="#AFA0F2"/>
    <path d="M16.775 14.0949C16.775 11.5385 14.7031 9.46734 12.1475 9.46734C10.5961 9.46734 9.22714 10.2328 8.38751 11.4031C7.54719 10.2328 6.17819 9.46734 4.62752 9.46734C2.07187 9.46734 0 11.5385 0 14.0949C0 14.4562 0.0455871 14.8086 0.124516 15.1461C0.76751 19.1381 5.20587 23.3513 8.38751 24.5073C11.5685 23.3513 16.0082 19.1381 16.6485 15.1475C16.7294 14.8086 16.775 14.4562 16.775 14.0949Z" fill="#F6851B"/>
    <path d="M24.3052 3.76489C24.3561 3.51853 24.1525 3.22289 23.8981 3.22289L20.9974 2.82871L19.6743 0.266542C19.6234 0.167997 19.5725 0.118724 19.4707 0.0694516C19.2163 -0.078366 18.9109 0.0201791 18.7583 0.266542L17.4861 2.82871L14.5854 3.22289C14.4327 3.22289 14.3309 3.27216 14.28 3.37071C14.0765 3.5678 14.0765 3.86343 14.28 4.06052L16.3665 6.03142L15.8576 8.83996C15.8576 8.9385 15.8576 9.03705 15.9085 9.13559C16.0612 9.38196 16.3665 9.4805 16.6209 9.33268L19.2163 8.00233L21.8116 9.33268C21.8625 9.38196 21.9643 9.38196 22.0661 9.38196C22.117 9.38196 22.1169 9.38196 22.1678 9.38196C22.4223 9.33268 22.6258 9.08632 22.575 8.79069L22.0661 5.98215L24.1525 4.01125C24.2543 3.96198 24.3052 3.86344 24.3052 3.76489Z" fill="#935CF6"/>
</svg>
